<svg xmlns="http://www.w3.org/2000/svg" viewBox="0 0 320 320"><defs><radialGradient id="cheese"><stop stop-color="#ffe6a2"/><stop offset="1" stop-color="#FFAC00"/></radialGradient><filter id="shadow"><feDropShadow dx="0" dy="10" stdDeviation="8" flood-opacity=".18"/></filter></defs><g filter="url(#shadow)" transform="rotate(-15 160 160)"><circle cx="160" cy="160" r="135" fill="#bd681f"/><circle cx="160" cy="160" r="125" fill="#e79436"/><circle cx="160" cy="160" r="114" fill="#CE0233"/><circle cx="160" cy="160" r="105" fill="url(#cheese)"/><g fill="#CE0233" stroke="#a8022a" stroke-width="3"><circle cx="116" cy="96" r="21"/><circle cx="196" cy="98" r="20"/><circle cx="230" cy="170" r="22"/><circle cx="173" cy="218" r="22"/><circle cx="98" cy="189" r="20"/><circle cx="158" cy="150" r="20"/></g><g fill="#42723a"><path d="m128 133 17-19 9 8-18 18z"/><path d="m186 176 22-8 4 11-21 8z"/><path d="m93 145 6-22 11 4-6 21z"/><path d="m132 230 13-16 9 7-13 16z"/><path d="m210 131 6-15 9 4-6 15z"/></g><g fill="#fff5d5"><ellipse cx="129" cy="175" rx="10" ry="7"/><ellipse cx="169" cy="87" rx="10" ry="7"/><ellipse cx="205" cy="216" rx="10" ry="7"/><ellipse cx="108" cy="220" rx="10" ry="7"/></g></g></svg>